<svg xmlns="http://www.w3.org/2000/svg" viewBox="-90 -105 180 180" width="180" height="180">
  <style>
    .dark-variant { display: block; }
    .light-variant { display: none; }
    @media (prefers-color-scheme: light) {
      .dark-variant { display: none; }
      .light-variant { display: block; }
    }
  </style>
  <!-- Dark theme variant -->
  <g class="dark-variant">
    <path d="M0,-86 L75,-32 L0,22 L-75,-32 Z" fill="none" stroke="#e4e9f2" stroke-width="1.5" stroke-linejoin="round" opacity="0.7"/>
    <path d="M-75,-32 L0,22 L0,58 L-75,4 Z" fill="#6da8ff" fill-opacity="0.3"/>
    <path d="M0,22 L75,-32 L75,4 L0,58 Z" fill="#6da8ff" fill-opacity="0.5"/>
    <path d="M-14,-32 A14,7 0 0,0 14,-32 L14,-42 A14,7 0 0,1 -14,-42 Z" fill="#6da8ff" fill-opacity="0.7"/>
    <ellipse cx="0" cy="-42" rx="14" ry="7" fill="#6da8ff" fill-opacity="0.7"/>
  </g>
  <!-- Light theme variant -->
  <g class="light-variant">
    <path d="M0,-86 L75,-32 L0,22 L-75,-32 Z" fill="none" stroke="#0e1726" stroke-width="1.5" stroke-linejoin="round" opacity="0.5"/>
    <path d="M-75,-32 L0,22 L0,58 L-75,4 Z" fill="#2563eb" fill-opacity="0.3"/>
    <path d="M0,22 L75,-32 L75,4 L0,58 Z" fill="#2563eb" fill-opacity="0.5"/>
    <path d="M-14,-32 A14,7 0 0,0 14,-32 L14,-42 A14,7 0 0,1 -14,-42 Z" fill="#2563eb" fill-opacity="0.6"/>
    <ellipse cx="0" cy="-42" rx="14" ry="7" fill="#2563eb" fill-opacity="0.6"/>
  </g>
</svg>
