<svg xmlns="http://www.w3.org/2000/svg" id="svg1" width="512" height="512" viewBox="0 0 512 512"><g id="g1"><style>@media (prefers-color-scheme:dark){.a{fill:#000}}@media (prefers-color-scheme:light){.a{fill:#fff}}</style><path id="path1" d="M142.637 417.221c-.284-.459-10.619-24.659-22.966-53.778A551522 551522 0 0 0 83.219 277.5C41.91 180.143 7 96.3 7 94.45 7 93.21 12.187 93 42.767 93h35.767l24.198 56.75c13.31 31.213 30.675 71.967 38.591 90.565l14.392 33.815 7.54-18.315c9.392-22.811 42.131-102.765 56.022-136.815l10.404-25.5 33.91-.246 33.909-.246 34.455 45.575c26.753 35.387 34.69 45.266 35.5 44.189.575-.763 15.628-21.274 33.453-45.58L433.315 93H505v325h-68.991l-.255-109.704-.254-109.704-34.922 48.954c-19.207 26.925-35.698 49.968-36.646 51.207-1.717 2.243-1.822 2.125-23.632-26.5-59.29-77.816-69.72-91.23-70.388-90.52-.398.422-20.628 48.017-44.956 105.767A988096 988096 0 0 1 175.453 405l-5.271 12.5-13.515.278c-7.433.152-13.747-.098-14.03-.557m62.363.44c0-.324 22.606-53.514 57.988-136.44 8.983-21.055 16.7-38.155 17.15-38 .45.153 14.737 19.03 31.751 41.948l30.934 41.669-15.978 23.331a34861 34861 0 0 0-31.153 45.581L280.517 418h-37.758c-20.768 0-37.759-.153-37.759-.34" class="a" style="fill:#fff"/></g></svg>